<?xml version="1.0" encoding="utf-8"?>
<!-- Generator: Adobe Illustrator 23.0.4, SVG Export Plug-In . SVG Version: 6.00 Build 0)  -->
<svg version="1.1" id="レイヤー_1" xmlns="http://www.w3.org/2000/svg" xmlns:xlink="http://www.w3.org/1999/xlink" x="0px"
	 y="0px" viewBox="0 0 62 45" style="enable-background:new 0 0 62 45;" xml:space="preserve">
<style type="text/css">
	.st0{fill:#FFFFFF;}
</style>
<path class="st0" d="M59.27,22.38c-0.32-0.52-0.71-0.71-1.19-0.44c-0.47,0.27-0.72,0.82-0.64,1.46c0.09,0.7-0.14,1.15-0.37,1.68
	c-1.62,3.7-4.04,6.19-6.66,8.39c-1.88,1.58-3.72,3.23-5.69,4.59c-0.15,0.1-0.29,0.21-0.44,0.3c-0.13,0.08-0.27,0.17-0.37-0.05
	c-0.12-0.25-0.01-0.42,0.14-0.55c0.47-0.41,0.94-0.84,1.42-1.23c2.58-2.12,4.93-4.68,7.1-7.51c1.49-1.95,2.77-4.18,3.77-6.69
	c0.16-0.41,0.33-0.59,0.7-0.61c0.64-0.02,1.06-0.68,1.05-1.49c0-0.7-0.45-1.36-0.97-1.42c-0.5-0.06-1.03,0.52-1.1,1.35
	c-0.05,0.68-0.27,1.2-0.52,1.75c-2.66,5.78-6.45,9.86-10.56,13.47c-0.3,0.26-0.61,0.49-0.89,0.77c-0.54,0.54-0.94,0.69-1.41-0.24
	c-0.52-1.02-0.58-0.93,0.21-1.56c2.23-1.79,4.26-3.96,6.23-6.24c2.86-3.33,5.2-7.3,7.12-11.71c0.43-0.99,0.77-2.06,1.12-3.11
	c0.17-0.49,0.38-0.83,0.76-1.04c0.51-0.27,0.89-0.77,0.74-1.63c-0.12-0.69-0.73-1.22-1.18-1.11c-0.55,0.14-0.9,0.86-0.81,1.77
	c0.04,0.4,0.02,0.75-0.11,1.11c-2,5.23-4.44,10-7.65,13.95c-2.22,2.73-4.61,5.15-7.19,7.21c-0.49,0.39-1.29,0-1.51-0.69
	c-0.13-0.4,0.08-0.61,0.25-0.8c3.55-3.86,6.21-8.8,8.85-13.76c1.15-2.16,2.28-4.33,2.8-6.97c0.07-0.37,0.29-0.57,0.47-0.82
	c0.48-0.68,0.52-1.32,0.11-1.96c-0.36-0.56-0.79-0.85-1.29-0.36c-0.51,0.5-0.68,1.2-0.32,1.93c0.35,0.71,0.14,1.29-0.07,1.89
	c-0.99,2.79-2.31,5.29-3.69,7.74c-1.62,2.87-3.13,5.86-5.09,8.33c-0.81,1.02-1.63,2.02-2.45,3.03c-0.29,0.35-0.57,0.66-0.96,0.13
	c-0.41-0.57,0-0.9,0.18-1.22c3.08-5.42,5.55-11.37,7.89-17.43c0.69-1.79,1.04-3.79,1.89-5.48c0.34-0.66-0.06-1.23-0.44-1.64
	c-0.43-0.46-0.84-0.26-1.2,0.19c-0.36,0.45-0.61,1.07-0.22,1.6c0.51,0.69,0.25,1.23,0.03,1.89c-2.19,6.54-4.85,12.7-7.9,18.54
	c-0.33,0.63-0.69,1.22-1.03,1.84c-0.22,0.41-0.43,0.48-0.76,0.18c-1.06-0.97-1.11-0.99-0.4-2.46c2.82-5.83,4.34-12.36,5.49-19.1
	c0.1-0.61,0.23-1.14,0.6-1.57c0.49-0.57,0.53-1.39,0.15-1.96c-0.38-0.57-0.81-0.73-1.31-0.26c-0.54,0.51-0.63,1.12-0.25,1.97
	c0.14,0.3,0.19,0.56,0.09,0.9c-0.8,2.83-1.22,5.81-1.89,8.69c-0.97,4.16-2.54,7.87-4.18,11.55c-0.11,0.25-0.21,0.67-0.52,0.48
	c-0.32-0.2-0.12-0.55-0.05-0.83c1.2-4.68,2.1-9.48,2.98-14.28c0.31-1.69,0.45-3.42,0.57-5.14c0.04-0.53,0.13-0.98,0.4-1.39
	c0.42-0.62,0.29-1.25-0.12-1.78c-0.38-0.49-0.82-0.63-1.26-0.13c-0.45,0.52-0.62,1.22-0.24,1.87c0.32,0.55,0.31,1.06,0.25,1.7
	c-0.36,3.85-1.1,7.57-1.87,11.29c-0.49,2.38-0.93,4.79-1.57,7.11c-0.23,0.85-1.22,1.18-1.7,0.56c-0.24-0.3-0.08-0.68-0.03-1
	c0.86-5.64,1.6-11.31,2.73-16.86c0.12-0.59,0.23-1.19,0.29-1.79c0.05-0.54,0.17-0.95,0.51-1.3c0.43-0.45,0.65-1.05,0.26-1.75
	c-0.32-0.58-0.72-0.96-1.27-0.58c-0.54,0.37-0.76,1.03-0.52,1.77c0.21,0.66,0.17,1.24,0.04,1.87c-1.29,6.13-2.1,12.41-3.09,18.64
	c-0.03,0.16-0.05,0.31-0.08,0.47c-0.05,0.21-0.05,0.49-0.26,0.51c-0.24,0.02-0.29-0.26-0.34-0.52c-0.27-1.5-0.59-2.99-0.79-4.51
	c-0.66-5.21-1.64-10.31-2.56-15.43c-0.1-0.56-0.12-1,0.17-1.51c0.49-0.86,0.23-1.61-0.74-2.43c-0.05,0-0.09,0-0.14,0
	c-0.24,0.25-0.52,0.45-0.72,0.75c-0.33,0.51-0.4,1.17-0.03,1.66c0.37,0.5,0.43,1.08,0.53,1.71c0.61,3.73,1.27,7.44,1.89,11.17
	c0.46,2.72,0.66,5.52,1.23,8.21c0.08,0.36,0.29,0.98-0.27,1.03c-0.49,0.04-1.09,0.83-1.44-0.48c-0.81-3.06-1.35-6.22-2.04-9.32
	c-0.8-3.58-1.19-7.27-1.62-10.95c-0.04-0.33-0.04-0.61,0.14-0.89c0.88-1.42,0.81-1.91-0.34-2.89c-0.05,0-0.09,0-0.14,0
	C23,3.29,22.72,4,23.15,4.84c0.33,0.64,0.38,1.28,0.38,1.99c0,0.74,0.01,1.48,0.07,2.21c0.44,4.71,1.51,9.22,2.39,13.79
	c0.29,1.5,0.73,2.92,1.09,4.38c0.06,0.24,0.13,0.53-0.1,0.67c-0.22,0.14-0.34-0.1-0.45-0.33c-0.25-0.54-0.49-1.09-0.74-1.64
	c-1.65-3.69-3.09-7.49-3.88-11.73c-0.43-2.31-0.96-4.58-1.47-6.85c-0.14-0.6-0.24-1.08,0.04-1.71c0.31-0.71,0.04-1.4-0.46-1.79
	c-0.49-0.38-0.96-0.24-1.3,0.39c-0.36,0.66-0.28,1.35,0.17,1.79c0.56,0.55,0.69,1.32,0.83,2.14c0.77,4.41,1.57,8.8,3.01,12.93
	c0.8,2.3,1.76,4.47,2.71,6.65c0.28,0.64,0.38,1.09-0.21,1.44c-0.1,0.06-0.2,0.17-0.28,0.29c-0.41,0.65-0.68,0.47-1.03-0.16
	c-1.95-3.43-3.69-7.04-5.26-10.81c-1.47-3.52-2.84-7.11-4.08-10.79c-0.2-0.58-0.3-1.07,0.05-1.68c0.36-0.62,0.19-1.3-0.24-1.78
	c-0.48-0.53-0.97-0.41-1.38,0.18c-0.4,0.58-0.4,1.32,0.01,1.81c0.59,0.69,0.73,1.62,0.91,2.54c0.1,0.47,0.21,0.92,0.36,1.35
	c1.58,4.57,3.39,8.96,5.34,13.25c1.08,2.37,2.3,4.62,3.54,6.84c0.15,0.27,0.44,0.59,0.09,0.98c-0.22,0.24-0.42,0.55-0.73,0.17
	c-1.25-1.5-2.57-2.89-3.69-4.58c-1.03-1.54-1.96-3.19-2.89-4.84c-1.9-3.35-3.84-6.66-5.13-10.57c-0.29-0.87-0.64-1.66-0.05-2.65
	c0.35-0.59,0.1-1.31-0.37-1.74c-0.46-0.43-0.91-0.3-1.26,0.24C8.8,7.75,8.64,8.45,9.08,8.94c0.57,0.64,0.68,1.49,0.82,2.37
	c0.13,0.85,0.36,1.67,0.68,2.42c2.08,4.96,4.68,9.39,7.4,13.68c1.05,1.65,2.25,3.09,3.48,4.48c0.2,0.23,0.51,0.43,0.4,0.92
	c-0.18,0.77-1.02,1.17-1.55,0.73c-2.45-2.03-4.78-4.28-6.92-6.91c-2.89-3.54-5.3-7.62-7.12-12.34c-0.39-1.01-1.03-1.88-0.6-3.27
	c0.2-0.64-0.14-1.32-0.72-1.5c-0.58-0.18-0.94,0.26-1.2,0.88c-0.28,0.68-0.02,1.24,0.37,1.56c0.47,0.39,0.66,0.96,0.82,1.6
	c0.09,0.36,0.2,0.72,0.33,1.06c1.71,4.41,3.89,8.33,6.51,11.78c2.37,3.13,5.01,5.78,7.81,8.14c0.16,0.13,0.34,0.22,0.32,0.56
	c-0.07,1-0.96,1.64-1.59,1.14c-1.09-0.87-2.15-1.82-3.18-2.82c-3.25-3.15-6.26-6.65-8.36-11.4c-0.19-0.44-0.39-0.82-0.3-1.42
	c0.15-0.94-0.17-1.61-0.74-1.79c-0.62-0.19-0.98,0.29-1.21,0.99c-0.22,0.67,0.03,1.39,0.66,1.76c0.37,0.22,0.6,0.55,0.79,1.02
	c0.82,1.92,1.73,3.75,2.86,5.35c2.56,3.63,5.51,6.56,8.63,9.2c0.24,0.2,0.47,0.41,0.7,0.65c0.12,0.12,0.17,0.32,0.09,0.52
	c-0.1,0.23-0.24,0.13-0.37,0.05c-0.15-0.09-0.29-0.2-0.43-0.32c-1.75-1.42-3.52-2.8-5.26-4.26c-2.28-1.91-4.55-3.88-6.12-6.94
	c-0.67-1.31-1.59-2.43-1.74-4.21c-0.07-0.83-0.93-1.11-1.43-0.58c-0.32,0.34-0.62,0.75-0.52,1.38c0.1,0.65,0.45,1.15,0.91,1.19
	c0.48,0.04,0.66,0.38,0.88,0.87c1.02,2.17,2.15,4.22,3.65,5.82c3.21,3.42,6.72,6.2,10.31,8.78c1.27,0.91,2.64,1.44,4.08,1.66
	c2.23,0.34,4.45,0.78,6.7,0.72l4.37-0.01c1.99,0.09,3.96-0.3,5.94-0.56c1.72-0.23,3.36-0.79,4.91-1.85
	c2.51-1.73,4.88-3.81,7.27-5.84c2.72-2.31,5.12-5.08,6.7-9.01c0.09-0.24,0.21-0.42,0.41-0.48c0.56-0.16,0.87-0.71,1.1-1.37
	c0-0.13,0-0.26,0-0.39C59.51,22.78,59.39,22.58,59.27,22.38z"/>
</svg>
